<?xml version="1.0" standalone="no"?>
<!DOCTYPE svg PUBLIC "-//W3C//DTD SVG 20010904//EN"
 "http://www.w3.org/TR/2001/REC-SVG-20010904/DTD/svg10.dtd">
<svg version="1.0" xmlns="http://www.w3.org/2000/svg"
 width="300.000000pt" height="168.000000pt" viewBox="0 0 300.000000 168.000000"
 preserveAspectRatio="xMidYMid meet">

<g transform="translate(0.000000,168.000000) scale(0.100000,-0.100000)"
fill="#000000" stroke="none">
<path d="M1345 1575 c-224 -60 -395 -196 -488 -388 -59 -120 -78 -203 -78
-330 0 -115 24 -224 69 -322 l29 -60 -65 -193 c-39 -118 -61 -197 -55 -203 6
-6 83 14 199 51 104 34 198 59 209 56 11 -2 57 -18 102 -35 479 -177 982 183
985 704 1 125 -19 211 -79 332 -94 194 -278 339 -490 387 -88 20 -267 20 -338
1z m365 -164 c348 -120 504 -492 344 -821 -28 -57 -57 -94 -118 -155 -125
-123 -249 -175 -419 -175 -102 0 -185 19 -268 61 -32 16 -66 29 -75 29 -9 0
-60 -14 -112 -30 -52 -17 -96 -29 -98 -27 -2 2 10 43 26 92 17 49 30 96 30
104 0 9 -18 52 -40 96 -153 304 -39 642 267 794 96 48 162 61 288 57 81 -2
127 -9 175 -25z"/>
<path d="M1222 1205 c-31 -22 -70 -93 -78 -142 -22 -140 168 -419 353 -516
146 -77 225 -92 298 -58 68 31 105 86 105 156 0 32 -4 35 -95 82 l-94 48 -49
-48 c-26 -26 -54 -47 -62 -47 -25 0 -137 79 -178 125 -21 23 -46 59 -57 78
l-18 35 26 32 c15 17 29 41 33 54 5 21 -47 178 -68 203 -15 18 -89 16 -116 -2z"/>
</g>
</svg>
