<?xml version="1.0" standalone="no"?>
<!DOCTYPE svg PUBLIC "-//W3C//DTD SVG 20010904//EN"
 "http://www.w3.org/TR/2001/REC-SVG-20010904/DTD/svg10.dtd">
<svg version="1.0" xmlns="http://www.w3.org/2000/svg"
 width="1425.000000pt" height="980.000000pt" viewBox="0 0 1425.000000 980.000000"
 preserveAspectRatio="xMidYMid meet">

<g transform="translate(0.000000,980.000000) scale(0.100000,-0.100000)"
fill="#000000" stroke="none">
<path d="M5260 7889 c-90 -12 -228 -53 -303 -90 -346 -174 -549 -513 -624
-1041 -23 -169 -23 -610 1 -828 34 -312 77 -561 152 -880 287 -1214 889 -2518
1372 -2971 216 -202 411 -233 553 -87 83 86 132 198 235 542 120 402 163 519
243 672 102 194 261 369 449 495 116 78 108 80 -35 13 -223 -106 -418 -277
-557 -487 -85 -129 -200 -359 -296 -592 -81 -197 -162 -361 -200 -407 -30 -36
-33 -37 -58 -24 -104 54 -308 356 -467 691 -513 1084 -898 2651 -861 3509 12
279 47 468 114 625 85 197 202 287 397 307 167 17 401 -93 730 -346 478 -366
611 -450 825 -518 76 -24 100 -27 220 -26 120 0 144 3 220 28 198 66 354 168
735 481 499 410 675 491 958 440 120 -21 215 -71 302 -158 141 -142 225 -350
277 -687 31 -197 33 -653 5 -825 -73 -440 -229 -763 -519 -1071 -46 -48 -76
-84 -68 -79 67 40 186 140 296 249 251 251 407 540 499 921 83 343 105 736 60
1065 -83 596 -397 946 -908 1010 -232 29 -410 -7 -662 -132 -148 -74 -289
-166 -560 -366 -328 -243 -460 -324 -571 -352 -66 -17 -107 -8 -209 44 -105
54 -178 107 -475 341 -129 103 -291 224 -360 270 -337 225 -605 303 -910 264z"/>
<path d="M5445 6970 c-61 -13 -89 -26 -128 -60 -157 -137 -237 -531 -208
-1013 48 -787 336 -1805 740 -2616 75 -151 145 -283 171 -321 9 -14 29 -48 45
-77 15 -29 32 -50 38 -46 6 3 7 1 3 -5 -5 -9 45 -96 71 -122 2 -2 -12 34 -32
80 -349 807 -651 1841 -765 2617 -55 373 -75 758 -51 974 24 205 78 368 132
397 88 47 269 -42 669 -330 463 -334 668 -437 940 -474 141 -18 151 -17 50 10
-215 58 -368 140 -605 325 -60 47 -115 90 -121 96 -6 5 -80 68 -164 140 -334
284 -516 403 -651 424 -72 12 -78 12 -134 1z"/>
<path d="M9002 4270 c15 -44 5 -148 -20 -196 -57 -112 -222 -207 -462 -267
-194 -48 -325 -67 -740 -106 -67 -7 28 -8 320 -6 409 3 531 11 699 46 65 13
71 8 71 -69 0 -215 -230 -317 -875 -387 l-130 -14 305 4 c439 6 643 38 761
118 72 49 92 123 53 198 -21 41 -96 139 -106 139 -5 0 -8 6 -8 14 0 7 14 16
30 20 61 12 177 67 217 104 48 43 63 76 63 135 0 48 -34 132 -50 122 -5 -3 -7
0 -4 8 5 14 -59 98 -110 145 l-26 24 12 -32z"/>
<path d="M8748 3170 c15 -150 -182 -246 -598 -290 -58 -6 -107 -14 -110 -17
-7 -8 368 6 474 18 107 11 218 38 210 50 -3 5 2 6 11 3 22 -9 82 35 100 72 22
46 -7 125 -67 181 l-23 22 3 -39z"/>
<path d="M8595 2675 c0 -41 -5 -51 -36 -79 -62 -58 -207 -99 -436 -126 -78 -9
-103 -16 -103 -27 0 -8 4 -11 10 -8 6 3 7 -1 4 -9 -9 -23 89 -213 145 -282 56
-69 108 -99 154 -90 41 8 105 59 151 120 52 71 153 278 172 354 19 76 13 109
-29 157 l-32 37 0 -47z"/>
</g>
</svg>
